<mxfile host="Electron" agent="Mozilla/5.0 (Windows NT 10.0; Win64; x64) AppleWebKit/537.36 (KHTML, like Gecko) draw.io/24.7.5 Chrome/126.0.6478.183 Electron/31.3.0 Safari/537.36" version="24.7.5">
  <diagram name="第 1 页" id="2QriNIWdTIV_ohWtYcBS">
    <mxGraphModel dx="1889" dy="723" grid="1" gridSize="10" guides="1" tooltips="1" connect="1" arrows="1" fold="1" page="1" pageScale="1" pageWidth="827" pageHeight="1169" math="1" shadow="0">
      <root>
        <mxCell id="0" />
        <mxCell id="1" parent="0" />
        <mxCell id="vLasG19pVosuePLoc7TY-36" value="" style="rounded=1;whiteSpace=wrap;html=1;fillColor=none;dashed=1;dashPattern=8 8;strokeColor=#9933FF;" vertex="1" parent="1">
          <mxGeometry x="-120" y="80" width="970" height="500" as="geometry" />
        </mxCell>
        <mxCell id="vLasG19pVosuePLoc7TY-3" value="" style="edgeStyle=orthogonalEdgeStyle;rounded=0;orthogonalLoop=1;jettySize=auto;html=1;" edge="1" parent="1" source="vLasG19pVosuePLoc7TY-1" target="vLasG19pVosuePLoc7TY-2">
          <mxGeometry relative="1" as="geometry" />
        </mxCell>
        <mxCell id="vLasG19pVosuePLoc7TY-1" value="$$(H, W, C)$$2D img" style="rounded=1;whiteSpace=wrap;html=1;fillColor=#f8cecc;strokeColor=#b85450;" vertex="1" parent="1">
          <mxGeometry x="-100" y="130" width="120" height="60" as="geometry" />
        </mxCell>
        <mxCell id="vLasG19pVosuePLoc7TY-9" style="edgeStyle=orthogonalEdgeStyle;rounded=0;orthogonalLoop=1;jettySize=auto;html=1;entryX=0;entryY=0.5;entryDx=0;entryDy=0;" edge="1" parent="1" source="vLasG19pVosuePLoc7TY-2" target="vLasG19pVosuePLoc7TY-4">
          <mxGeometry relative="1" as="geometry" />
        </mxCell>
        <mxCell id="vLasG19pVosuePLoc7TY-2" value="$$(N\_Rays, N\_Pts, XYZ, Dir)$$=&lt;span style=&quot;background-color: initial;&quot;&gt;$$(1024, 64, 3,3)$$&lt;/span&gt;" style="rounded=1;whiteSpace=wrap;html=1;fillColor=#dae8fc;strokeColor=#6c8ebf;" vertex="1" parent="1">
          <mxGeometry x="200" y="120" width="190" height="80" as="geometry" />
        </mxCell>
        <mxCell id="vLasG19pVosuePLoc7TY-12" style="edgeStyle=orthogonalEdgeStyle;rounded=0;orthogonalLoop=1;jettySize=auto;html=1;entryX=0.5;entryY=0;entryDx=0;entryDy=0;" edge="1" parent="1" source="vLasG19pVosuePLoc7TY-4" target="vLasG19pVosuePLoc7TY-11">
          <mxGeometry relative="1" as="geometry" />
        </mxCell>
        <mxCell id="vLasG19pVosuePLoc7TY-4" value="$$(1024,64,20*3+3,3*8*3)$$=$$(1024,64,63,27)$$" style="rounded=1;whiteSpace=wrap;html=1;fillColor=#dae8fc;strokeColor=#6c8ebf;" vertex="1" parent="1">
          <mxGeometry x="590" y="122.5" width="220" height="75" as="geometry" />
        </mxCell>
        <mxCell id="vLasG19pVosuePLoc7TY-8" value="K,(R,T),&lt;br&gt;random sample - ray&lt;br&gt;uniform sample - pts" style="text;html=1;align=center;verticalAlign=middle;whiteSpace=wrap;rounded=0;strokeColor=default;" vertex="1" parent="1">
          <mxGeometry x="40" y="110" width="140" height="50" as="geometry" />
        </mxCell>
        <mxCell id="vLasG19pVosuePLoc7TY-10" value="sin,cos encoder" style="text;html=1;align=center;verticalAlign=middle;whiteSpace=wrap;rounded=0;strokeColor=default;" vertex="1" parent="1">
          <mxGeometry x="413.5" y="130" width="140" height="30" as="geometry" />
        </mxCell>
        <mxCell id="vLasG19pVosuePLoc7TY-29" value="" style="edgeStyle=orthogonalEdgeStyle;rounded=0;orthogonalLoop=1;jettySize=auto;html=1;" edge="1" parent="1" source="vLasG19pVosuePLoc7TY-11" target="vLasG19pVosuePLoc7TY-14">
          <mxGeometry relative="1" as="geometry" />
        </mxCell>
        <mxCell id="vLasG19pVosuePLoc7TY-11" value="8 MLP" style="rounded=1;whiteSpace=wrap;html=1;fillColor=#dae8fc;strokeColor=#6c8ebf;" vertex="1" parent="1">
          <mxGeometry x="590" y="250" width="220" height="75" as="geometry" />
        </mxCell>
        <mxCell id="vLasG19pVosuePLoc7TY-17" style="edgeStyle=orthogonalEdgeStyle;rounded=0;orthogonalLoop=1;jettySize=auto;html=1;entryX=1;entryY=0.5;entryDx=0;entryDy=0;" edge="1" parent="1" source="vLasG19pVosuePLoc7TY-14" target="vLasG19pVosuePLoc7TY-16">
          <mxGeometry relative="1" as="geometry" />
        </mxCell>
        <mxCell id="vLasG19pVosuePLoc7TY-14" value="$$(1024,64,RGB,\sigma)$$=$$(1024,64,3,1)$$" style="rounded=1;whiteSpace=wrap;html=1;fillColor=#dae8fc;strokeColor=#6c8ebf;" vertex="1" parent="1">
          <mxGeometry x="333.5" y="250" width="220" height="75" as="geometry" />
        </mxCell>
        <mxCell id="vLasG19pVosuePLoc7TY-27" style="edgeStyle=orthogonalEdgeStyle;rounded=0;orthogonalLoop=1;jettySize=auto;html=1;entryX=0;entryY=0.5;entryDx=0;entryDy=0;" edge="1" parent="1" source="vLasG19pVosuePLoc7TY-16" target="vLasG19pVosuePLoc7TY-22">
          <mxGeometry relative="1" as="geometry">
            <Array as="points">
              <mxPoint x="10" y="397" />
            </Array>
          </mxGeometry>
        </mxCell>
        <mxCell id="vLasG19pVosuePLoc7TY-16" value="$$(N\_Rays, N\_Pts&#39;, XYZ, Dir)$$=$$(1024,192,3,3)$$" style="rounded=1;whiteSpace=wrap;html=1;fillColor=#d5e8d4;strokeColor=#82b366;" vertex="1" parent="1">
          <mxGeometry x="-100" y="250" width="220" height="75" as="geometry" />
        </mxCell>
        <mxCell id="vLasG19pVosuePLoc7TY-18" value="add 128 pts w.r.t σ" style="text;html=1;align=center;verticalAlign=middle;whiteSpace=wrap;rounded=0;strokeColor=default;" vertex="1" parent="1">
          <mxGeometry x="160" y="260" width="140" height="27" as="geometry" />
        </mxCell>
        <mxCell id="vLasG19pVosuePLoc7TY-26" style="edgeStyle=orthogonalEdgeStyle;rounded=0;orthogonalLoop=1;jettySize=auto;html=1;entryX=0;entryY=0.5;entryDx=0;entryDy=0;" edge="1" parent="1" source="vLasG19pVosuePLoc7TY-22" target="vLasG19pVosuePLoc7TY-25">
          <mxGeometry relative="1" as="geometry" />
        </mxCell>
        <mxCell id="vLasG19pVosuePLoc7TY-22" value="$$(1024,192,20*3+3,3*8*3)$$=$$(1024,192,63,27)$$" style="rounded=1;whiteSpace=wrap;html=1;fillColor=#d5e8d4;strokeColor=#82b366;" vertex="1" parent="1">
          <mxGeometry x="333.5" y="360" width="220" height="75" as="geometry" />
        </mxCell>
        <mxCell id="vLasG19pVosuePLoc7TY-24" value="sin,cos encoder" style="text;html=1;align=center;verticalAlign=middle;whiteSpace=wrap;rounded=0;strokeColor=default;" vertex="1" parent="1">
          <mxGeometry x="150" y="368" width="140" height="30" as="geometry" />
        </mxCell>
        <mxCell id="vLasG19pVosuePLoc7TY-31" value="" style="edgeStyle=orthogonalEdgeStyle;rounded=0;orthogonalLoop=1;jettySize=auto;html=1;" edge="1" parent="1" source="vLasG19pVosuePLoc7TY-25" target="vLasG19pVosuePLoc7TY-30">
          <mxGeometry relative="1" as="geometry" />
        </mxCell>
        <mxCell id="vLasG19pVosuePLoc7TY-25" value="8 MLP" style="rounded=1;whiteSpace=wrap;html=1;fillColor=#d5e8d4;strokeColor=#82b366;" vertex="1" parent="1">
          <mxGeometry x="590" y="360" width="220" height="75" as="geometry" />
        </mxCell>
        <mxCell id="vLasG19pVosuePLoc7TY-28" style="edgeStyle=orthogonalEdgeStyle;rounded=0;orthogonalLoop=1;jettySize=auto;html=1;exitX=0.5;exitY=1;exitDx=0;exitDy=0;" edge="1" parent="1" source="vLasG19pVosuePLoc7TY-24" target="vLasG19pVosuePLoc7TY-24">
          <mxGeometry relative="1" as="geometry" />
        </mxCell>
        <mxCell id="vLasG19pVosuePLoc7TY-34" value="" style="edgeStyle=orthogonalEdgeStyle;rounded=0;orthogonalLoop=1;jettySize=auto;html=1;" edge="1" parent="1" source="vLasG19pVosuePLoc7TY-30" target="vLasG19pVosuePLoc7TY-33">
          <mxGeometry relative="1" as="geometry" />
        </mxCell>
        <mxCell id="vLasG19pVosuePLoc7TY-30" value="$$(1024,192,RGB,\sigma)$$=$$(1024,192,3,1)$$" style="rounded=1;whiteSpace=wrap;html=1;fillColor=#d5e8d4;strokeColor=#82b366;" vertex="1" parent="1">
          <mxGeometry x="590" y="480" width="220" height="75" as="geometry" />
        </mxCell>
        <mxCell id="vLasG19pVosuePLoc7TY-33" value="$$(H,W,C)$$ 2D img" style="rounded=1;whiteSpace=wrap;html=1;fillColor=#f8cecc;strokeColor=#b85450;" vertex="1" parent="1">
          <mxGeometry x="333.5" y="487.5" width="120" height="60" as="geometry" />
        </mxCell>
        <mxCell id="vLasG19pVosuePLoc7TY-35" value="Volume rendering" style="rounded=0;whiteSpace=wrap;html=1;" vertex="1" parent="1">
          <mxGeometry x="480" y="489" width="90" height="28" as="geometry" />
        </mxCell>
      </root>
    </mxGraphModel>
  </diagram>
</mxfile>
